# xmcd
#
# Track frame offsets:
#	150
#	16280
#	34206
#	55945
#	75442
#	92489
#	105836
#	120158
#	139875
#	156989
#	176690
#
# Disc length: 2585 seconds
#
# Revision: 3
# Processed by: cddbd v1.5.1PL0 Copyright (c) Steve Scherf et al.
# Submitted via: EasyCDDAExtractor 8.2.1.1
#
DISCID=7b0a170b
DTITLE=пяытоьактг акйистг - ма се бкепы ма цекас
DYEAR=2004
DGENRE=емтевмо
TTITLE0=йахе жояа поу ле йоитафеис
TTITLE1=ока аута поу жобалаи
TTITLE2=ма леимеис еды йомта лоу
TTITLE3=о аццекос лоу
TTITLE4=выяис есема
TTITLE5=ваятойибытиа моумоу
TTITLE6=оке оке ока
TTITLE7=пяокабаимы
TTITLE8=сумамтгсе ле
TTITLE9=йакглеяа
TTITLE10=йуймеио асла
EXTD=
EXTT0=
EXTT1=
EXTT2=
EXTT3=
EXTT4=
EXTT5=
EXTT6=
EXTT7=
EXTT8=
EXTT9=
EXTT10=
PLAYORDER=
